<svg width="997" height="408" viewBox="0 0 997 408" fill="none" xmlns="http://www.w3.org/2000/svg">
<g clip-path="url(#clip0_5194_4159)">
<path d="M0 8C0 3.58172 3.58172 0 8 0H989C993.418 0 997 3.58172 997 8V400C997 404.418 993.418 408 989 408H8.00002C3.58175 408 0 404.418 0 400V8Z" fill="#DAE9FF"/>
<g clip-path="url(#clip1_5194_4159)">
<path d="M540.591 148.548C550.175 137.519 564.306 130.547 580.064 130.547C608.936 130.547 632.342 153.952 632.342 182.824C632.342 211.696 608.936 235.102 580.064 235.102C564.305 235.102 550.175 228.128 540.591 217.099V323.653H813.713C818.427 323.653 822.248 319.832 822.248 315.118V217.098C831.833 228.127 845.963 235.102 861.723 235.102C890.595 235.102 914 211.696 914 182.824C914 153.952 890.595 130.547 861.723 130.547C845.963 130.547 831.833 137.52 822.248 148.55V50.5312C822.248 45.8176 818.427 41.9961 813.713 41.9961H540.591V148.548ZM267.468 41.9961C262.754 41.9961 258.933 45.8175 258.933 50.5312V315.118C258.933 319.832 262.754 323.653 267.468 323.653H532.055C536.768 323.653 540.59 319.832 540.59 315.118V217.098L540.591 217.099V148.548L540.59 148.55V50.5312C540.59 45.8175 536.768 41.9961 532.055 41.9961H267.468Z" fill="#BCD9FF"/>
</g>
<g clip-path="url(#clip2_5194_4159)">
<path d="M268.532 41.9961C263.818 41.9961 259.997 45.8175 259.997 50.5312V148.548C269.582 137.519 283.712 130.547 299.471 130.547C328.343 130.547 351.748 153.952 351.748 182.824C351.748 211.696 328.343 235.101 299.471 235.102C283.712 235.102 269.582 228.128 259.997 217.099V315.118C259.997 319.832 263.818 323.653 268.532 323.653H541.654V217.098C551.239 228.127 565.369 235.102 581.129 235.102C610.001 235.102 633.406 211.696 633.406 182.824C633.406 153.952 610.001 130.547 581.129 130.547C565.37 130.547 551.239 137.52 541.654 148.55V41.9961H268.532ZM-13.126 41.9961C-17.8397 41.9961 -21.6611 45.8175 -21.6611 50.5312V315.118C-21.6611 319.832 -17.8397 323.653 -13.126 323.653H251.461C256.175 323.653 259.996 319.832 259.996 315.118V217.098L259.997 217.099V148.548L259.996 148.55V50.5312C259.996 45.8176 256.175 41.9962 251.461 41.9961H-13.126Z" fill="#8EC2FF"/>
</g>
<path d="M532.707 182.034C536.934 183.375 540.666 186.271 542.764 189.776C543.72 190.721 544.553 190.903 545.664 190.081L558.189 151.465L600.915 164.997C601.471 165.607 601.255 166.186 600.452 167.009C596.905 169.112 594.159 172.251 592.802 176.457C589.84 185.6 594.961 195.292 604.216 198.218C613.471 201.144 623.374 196.054 626.366 186.911C627.6 183.071 627.322 179.444 626.027 175.939C625.564 174.323 625.656 173.226 626.644 173.104L668.352 186.301L633.091 295.078L522.99 260.241L537.273 216.17C536.903 214.676 535.638 214.494 533.818 214.981C530.27 216.261 526.013 216.353 522.126 215.134C512.871 212.208 507.719 202.394 510.681 193.25C513.581 184.137 523.452 179.078 532.707 182.034Z" fill="#183CB5"/>
<path d="M630.13 321.712C632.042 316.348 631.611 310.74 629.297 305.955L607.949 262.219C607.949 262.188 607.949 262.158 607.949 262.158L588.329 222.049C586.941 219.153 583.331 217.965 580.246 219.428C577.192 220.86 575.835 224.396 577.223 227.291L590.982 255.971L588.36 257.19L571.393 221.896C570.004 219.001 566.395 217.812 563.31 219.275C560.256 220.708 558.899 224.243 560.287 227.139L577.562 262.28L574.786 263.59L560.657 234.971C559.269 232.076 555.659 230.918 552.574 232.35C549.52 233.783 548.163 237.318 549.551 240.183L565.068 271.911L562.446 273.13L553.932 255.636C552.544 252.74 548.934 251.552 545.849 253.015C542.795 254.447 541.438 257.982 542.826 260.878L579.413 335.915C579.444 335.884 579.475 335.884 579.506 335.854C584.473 343.26 591.506 345.729 601.101 342.071L619.363 333.477C624.268 331.16 628.217 327.076 630.13 321.712Z" fill="#DAE9FF"/>
<path d="M854.836 441.246C879.763 441.246 897.902 417.9 891.486 394.127C882.601 361.241 871.125 321.894 865.048 313.817C863.351 311.531 861.623 309.307 859.68 307.234C855.238 302.51 849.808 298.731 844.039 295.744C831.73 289.374 817.601 286.814 803.842 285.778C789.158 284.65 776.51 285.29 761.856 286.509C748.529 287.637 735.141 288.978 721.875 290.776C708.024 292.666 684.887 295.866 673.75 304.674C656.228 315.067 644.104 382.484 638.767 418.571C637.009 430.548 646.387 441.246 658.634 441.246H854.836Z" fill="#59A0FF"/>
<path d="M706.05 203.274C709.814 198.672 715.12 188.949 719.192 179.074L756.828 184.652L773.302 233.904L792.675 234.209L793.138 311.044C793.632 322.138 780.86 331.678 764.602 332.379C748.376 333.08 734.802 324.668 734.308 313.574L733.691 248.717L722.709 249.021C718.76 248.9 714.873 247.223 712.097 244.023C709.32 240.853 708.21 236.8 708.673 232.929L710.801 211.655L707.685 210.04C704.816 209.004 703.582 206.017 706.05 203.274Z" fill="#DAE9FF"/>
<path d="M793.661 192.579L792.643 233.968H769.629L754.914 185.965L793.661 192.579Z" fill="black"/>
<path d="M730.945 194.224C730.976 195.565 729.927 196.693 728.569 196.724C727.212 196.754 726.071 195.718 726.04 194.377C726.009 193.036 727.058 191.908 728.415 191.877C729.773 191.817 730.883 192.883 730.945 194.224Z" fill="black"/>
<path d="M725.39 226.403C730.881 226.403 733.627 223.416 734.984 220.673L732.208 219.332C730.573 222.624 727.611 223.873 723.138 223.172L722.645 226.19C723.632 226.312 724.557 226.403 725.39 226.403Z" fill="black"/>
<path d="M718.789 174.654C718.82 174.471 720.578 164.413 720.609 164.231C724.188 143.536 744.055 137.105 765.001 140.641C785.948 144.176 800.016 156.367 796.437 177.031C796.406 177.214 794.617 187.272 794.586 187.455L718.789 174.654Z" fill="#2684F8"/>
<path d="M781.787 205.346C781.571 197.635 775.062 191.569 767.257 191.783C759.452 191.996 753.313 198.427 753.529 206.138C753.745 213.849 760.254 219.914 768.059 219.701C775.864 219.487 782.003 213.057 781.787 205.346Z" fill="#1D5BF3"/>
<path d="M784.779 175.266C785.335 172.493 788.08 170.694 790.918 171.243L797.366 172.523C797.273 174.017 797.119 175.51 796.872 177.034C796.841 177.125 796.348 180.021 795.885 182.703L788.882 181.301C786.044 180.752 784.224 178.04 784.779 175.266Z" fill="black"/>
<path d="M689.641 175.085L793.665 192.762L794.775 187.184L690.751 169.477L689.641 175.085Z" fill="black"/>
<path d="M747.526 248.434L733.676 248.637L733.722 251.684L747.572 251.481L747.526 248.434Z" fill="black"/>
<path d="M618.101 441.158L573.955 329.06C572.783 326.347 572.814 323.055 574.294 320.221C575.775 317.387 578.397 315.466 581.328 314.857L617.915 306.963C620.63 306.384 623.592 306.689 626.245 308.03C628.929 309.401 630.841 311.687 631.952 314.217L691.275 441.158H618.101Z" fill="#59A0FF"/>
<path d="M458.237 209.985C454.473 210.167 450.771 211.508 447.686 214.13C440.313 220.408 439.573 231.319 445.897 238.603C452.252 245.888 463.389 246.65 470.762 240.402C474.124 237.537 475.944 233.818 476.53 229.795C477.209 228.18 477.919 228.028 479.831 229.612L483.688 234.032L506.578 260.273L418.996 334.853L343.508 248.326L377.072 219.738C376.887 219.372 376.023 218.854 374.943 218.549C371.241 217.817 367.817 215.989 365.133 212.941C358.778 205.657 359.611 194.715 366.984 188.437C374.357 182.158 385.463 182.981 391.787 190.265C394.687 193.587 396.013 197.61 395.983 201.695C396.137 202.335 396.353 202.792 396.692 203.036L431.089 173.746L455.645 201.908L459.81 206.662C461.383 209.04 460.643 209.68 458.237 209.985Z" fill="#1D5BF3"/>
<path d="M140.613 440.836C117.291 440.836 100.262 419.044 106.185 396.765C114.453 365.616 125.281 328.067 131.204 320.174C132.87 317.949 134.536 315.785 136.448 313.773C140.767 309.171 146.042 305.514 151.657 302.618C163.627 296.431 177.385 293.932 190.743 292.926C205.026 291.829 259.661 296.035 272.556 297.772C286.006 299.601 299.765 302.74 310.593 311.304C324.013 321.911 330.522 338.399 335.273 354.248C338.018 363.391 339.931 389.085 341.257 410.754C342.245 427.091 329.103 440.867 312.568 440.867H140.613V440.836Z" fill="#1D5BF3"/>
<path d="M165.565 214.524C175.898 211.355 184.812 209.771 193.479 189.233C198.198 178.173 206.773 170.311 216.581 165.436C223.922 160.682 232.681 157.94 242.12 158.001C264.389 158.123 282.895 173.907 287.151 194.505H275.863L284.19 230.704C303.19 236.036 315.497 243.623 320 267.939L206.217 267.97L134.197 268C133.025 248.377 136.295 222.69 165.565 214.524Z" fill="black"/>
<path d="M218.387 211.884C218.757 205.575 224.248 200.759 230.634 201.125C237.02 201.491 241.894 206.916 241.524 213.225C241.154 219.534 235.663 224.349 229.277 223.984C222.891 223.618 218.017 218.193 218.387 211.884Z" fill="#BCD9FF"/>
<path d="M283.365 194H242.119L242.181 204.789L227.188 220.425L208 318.412C208 329.201 220.803 337.948 236.628 337.948C252.454 337.948 265.257 329.201 265.257 318.412L265.627 256.663L276.301 257.303C280.126 257.303 283.951 255.779 286.759 252.792C289.566 249.775 290.769 245.904 290.46 242.125L288.795 221.156L291.849 219.663C294.625 218.779 296.198 215.609 293.607 213.11C290.553 210.946 286.45 201.863 283.365 194Z" fill="#BCD9FF"/>
<path d="M268.424 205.302C268.331 206.612 269.349 207.71 270.676 207.801C272.002 207.892 273.113 206.887 273.205 205.576C273.298 204.266 272.28 203.168 270.953 203.077C269.627 203.016 268.486 203.991 268.424 205.302Z" fill="black"/>
<path d="M271.352 235.627C272.03 235.627 272.771 235.597 273.542 235.475L273.172 232.457C268.822 233.006 266.015 231.696 264.534 228.465L261.727 229.745C262.991 232.518 265.675 235.627 271.352 235.627Z" fill="black"/>
<path d="M249.338 256.589L249.289 259.637L262.121 259.838L262.17 256.791L249.338 256.589Z" fill="black"/>
<path d="M208.422 232.339C208.422 225.42 214.098 219.812 221.101 219.812C228.104 219.812 233.78 225.451 233.78 232.339C233.78 239.258 228.104 244.865 221.101 244.865C214.098 244.865 208.422 239.227 208.422 232.339ZM211.507 232.339C211.507 237.581 215.826 241.818 221.101 241.818C226.407 241.818 230.695 237.551 230.695 232.339C230.695 227.097 226.376 222.86 221.101 222.86C215.826 222.86 211.507 227.097 211.507 232.339Z" fill="#DAE9FF"/>
<path d="M353.336 317.084L378.632 268.715C378.632 268.685 378.632 268.685 378.632 268.654L395.137 236.835C396.309 234.549 399.24 233.665 401.677 234.884C404.114 236.104 405.132 238.938 403.96 241.254L392.391 264.021L394.458 265.058L408.741 237.048C409.914 234.763 412.844 233.879 415.282 235.098C417.719 236.317 418.737 239.151 417.564 241.468L403.034 269.355L405.225 270.452L417.102 247.746C418.274 245.46 421.205 244.576 423.642 245.796C426.079 247.015 427.097 249.849 425.925 252.165L412.875 277.34L414.942 278.377L422.099 264.509C423.272 262.223 426.202 261.339 428.639 262.559C431.076 263.778 432.094 266.612 430.922 268.928L396.093 337.504L353.336 317.084Z" fill="#BCD9FF"/>
<path d="M341.228 441.248C341.228 441.095 396.88 334.392 396.88 334.392C398.053 331.679 398.022 328.387 396.541 325.553C395.06 322.719 392.438 320.798 389.507 320.189L359.151 312.295C356.437 311.716 353.475 312.021 350.822 313.362C348.138 314.733 346.225 317.019 345.115 319.549L275.148 441.248H341.228Z" fill="#1D5BF3"/>
</g>
<defs>
<clipPath id="clip0_5194_4159">
<path d="M0 8C0 3.58172 3.58172 0 8 0H989C993.418 0 997 3.58172 997 8V400C997 404.418 993.418 408 989 408H8.00002C3.58175 408 0 404.418 0 400V8Z" fill="white"/>
</clipPath>
<clipPath id="clip1_5194_4159">
<rect width="373.409" height="281.657" fill="white" transform="matrix(-1 0 0 1 914 42)"/>
</clipPath>
<clipPath id="clip2_5194_4159">
<rect width="373.409" height="281.657" fill="white" transform="matrix(-1 0 0 1 633.406 42)"/>
</clipPath>
</defs>
</svg>
