<svg width="384" height="120" viewBox="0 0 384 120" fill="none" xmlns="http://www.w3.org/2000/svg">
<g clip-path="url(#clip0_5194_1123)">
<path d="M0 8C0 3.58172 3.58172 0 8 0H376C380.418 0 384 3.58172 384 8V112C384 116.418 380.418 120 376 120H7.99999C3.58171 120 0 116.418 0 112V8Z" fill="#EEF6FF"/>
<rect x="16" y="16" width="127" height="24" rx="12" fill="#EEF6FF"/>
<path d="M28.8608 32V23.2727H32.1335C32.804 23.2727 33.3665 23.3977 33.821 23.6477C34.2784 23.8977 34.6236 24.2415 34.8565 24.679C35.0923 25.1136 35.2102 25.608 35.2102 26.1619C35.2102 26.7216 35.0923 27.2187 34.8565 27.6534C34.6207 28.0881 34.2727 28.4304 33.8125 28.6804C33.3523 28.9276 32.7855 29.0511 32.1122 29.0511H29.9432V27.7514H31.8991C32.2912 27.7514 32.6122 27.6832 32.8622 27.5469C33.1122 27.4105 33.2969 27.223 33.4162 26.9844C33.5384 26.7457 33.5994 26.4716 33.5994 26.1619C33.5994 25.8523 33.5384 25.5795 33.4162 25.3438C33.2969 25.108 33.1108 24.9247 32.858 24.794C32.608 24.6605 32.2855 24.5938 31.8906 24.5938H30.4418V32H28.8608ZM38.2816 32.1321C37.8668 32.1321 37.4933 32.0582 37.1609 31.9105C36.8313 31.7599 36.57 31.5384 36.3768 31.2457C36.1864 30.9531 36.0913 30.5923 36.0913 30.1634C36.0913 29.794 36.1594 29.4886 36.2958 29.2472C36.4322 29.0057 36.6183 28.8125 36.854 28.6676C37.0898 28.5227 37.3555 28.4134 37.6509 28.3395C37.9492 28.2628 38.2575 28.2074 38.5756 28.1733C38.9592 28.1335 39.2702 28.098 39.5089 28.0668C39.7475 28.0327 39.9208 27.9815 40.0288 27.9134C40.1396 27.8423 40.195 27.733 40.195 27.5852V27.5597C40.195 27.2386 40.0998 26.9901 39.9094 26.8139C39.7191 26.6378 39.445 26.5497 39.087 26.5497C38.7092 26.5497 38.4094 26.6321 38.1879 26.7969C37.9691 26.9616 37.8214 27.1562 37.7447 27.3807L36.3043 27.1761C36.418 26.7784 36.6055 26.446 36.8668 26.179C37.1282 25.9091 37.4478 25.7074 37.8256 25.5739C38.2035 25.4375 38.6211 25.3693 39.0785 25.3693C39.3938 25.3693 39.7077 25.4062 40.0202 25.4801C40.3327 25.554 40.6183 25.6761 40.8768 25.8466C41.1353 26.0142 41.3427 26.2429 41.4989 26.5327C41.658 26.8224 41.7376 27.1847 41.7376 27.6193V32H40.2546V31.1009H40.2035C40.1097 31.2827 39.9776 31.4531 39.8072 31.6122C39.6396 31.7685 39.4279 31.8949 39.1722 31.9915C38.9194 32.0852 38.6225 32.1321 38.2816 32.1321ZM38.6822 30.9986C38.9918 30.9986 39.2603 30.9375 39.4876 30.8153C39.7148 30.6903 39.8896 30.5256 40.0117 30.321C40.1367 30.1165 40.1992 29.8935 40.1992 29.652V28.8807C40.1509 28.9205 40.0685 28.9574 39.9521 28.9915C39.8384 29.0256 39.7106 29.0554 39.5685 29.081C39.4265 29.1065 39.2859 29.1293 39.1467 29.1491C39.0075 29.169 38.8867 29.1861 38.7844 29.2003C38.5543 29.2315 38.3484 29.2827 38.1665 29.3537C37.9847 29.4247 37.8413 29.5241 37.7362 29.652C37.631 29.777 37.5785 29.9389 37.5785 30.1378C37.5785 30.4219 37.6822 30.6364 37.8896 30.7812C38.0969 30.9261 38.3612 30.9986 38.6822 30.9986ZM44.0131 34.4545C43.8029 34.4545 43.6083 34.4375 43.4293 34.4034C43.2532 34.3722 43.1126 34.3352 43.0075 34.2926L43.3654 33.0909C43.5898 33.1563 43.7901 33.1875 43.9663 33.1847C44.1424 33.1818 44.2972 33.1264 44.4308 33.0185C44.5671 32.9134 44.6822 32.7372 44.7759 32.4901L44.908 32.1364L42.5344 25.4545H44.1708L45.6793 30.3977H45.7475L47.2603 25.4545H48.9009L46.2802 32.7926C46.158 33.1392 45.9961 33.4361 45.7944 33.6832C45.5927 33.9332 45.3455 34.1236 45.0529 34.2543C44.7631 34.3878 44.4165 34.4545 44.0131 34.4545ZM56.2134 25.4545V26.6477H52.4506V25.4545H56.2134ZM53.3796 23.8864H54.9222V30.0312C54.9222 30.2386 54.9535 30.3977 55.016 30.5085C55.0813 30.6165 55.1665 30.6903 55.2717 30.7301C55.3768 30.7699 55.4933 30.7898 55.6211 30.7898C55.7177 30.7898 55.8058 30.7827 55.8853 30.7685C55.9677 30.7543 56.0302 30.7415 56.0728 30.7301L56.3327 31.9361C56.2504 31.9645 56.1325 31.9957 55.979 32.0298C55.8285 32.0639 55.6438 32.0838 55.4251 32.0895C55.0387 32.1009 54.6907 32.0426 54.381 31.9148C54.0714 31.7841 53.8256 31.5824 53.6438 31.3097C53.4648 31.0369 53.3768 30.696 53.3796 30.2869V23.8864ZM60.2884 32.1278C59.6491 32.1278 59.0952 31.9872 58.6264 31.706C58.1577 31.4247 57.794 31.0312 57.5355 30.5256C57.2798 30.0199 57.152 29.429 57.152 28.7528C57.152 28.0767 57.2798 27.4844 57.5355 26.9759C57.794 26.4673 58.1577 26.0724 58.6264 25.7912C59.0952 25.5099 59.6491 25.3693 60.2884 25.3693C60.9276 25.3693 61.4815 25.5099 61.9503 25.7912C62.419 26.0724 62.7813 26.4673 63.0369 26.9759C63.2955 27.4844 63.4247 28.0767 63.4247 28.7528C63.4247 29.429 63.2955 30.0199 63.0369 30.5256C62.7813 31.0312 62.419 31.4247 61.9503 31.706C61.4815 31.9872 60.9276 32.1278 60.2884 32.1278ZM60.2969 30.892C60.6435 30.892 60.9332 30.7969 61.1662 30.6065C61.3991 30.4134 61.5724 30.1548 61.6861 29.831C61.8026 29.5071 61.8608 29.1463 61.8608 28.7486C61.8608 28.348 61.8026 27.9858 61.6861 27.6619C61.5724 27.3352 61.3991 27.0753 61.1662 26.8821C60.9332 26.6889 60.6435 26.5923 60.2969 26.5923C59.9418 26.5923 59.6463 26.6889 59.4105 26.8821C59.1776 27.0753 59.0028 27.3352 58.8864 27.6619C58.7727 27.9858 58.7159 28.348 58.7159 28.7486C58.7159 29.1463 58.7727 29.5071 58.8864 29.831C59.0028 30.1548 59.1776 30.4134 59.4105 30.6065C59.6463 30.7969 59.9418 30.892 60.2969 30.892ZM67.7106 34.4545V25.4545H69.2276V26.5369H69.3171C69.3967 26.3778 69.5089 26.2088 69.6538 26.0298C69.7987 25.848 69.9947 25.6932 70.2418 25.5653C70.489 25.4347 70.8043 25.3693 71.1879 25.3693C71.6935 25.3693 72.1495 25.4986 72.5558 25.7571C72.9648 26.0128 73.2887 26.392 73.5273 26.8949C73.7688 27.3949 73.8896 28.0085 73.8896 28.7358C73.8896 29.4545 73.7717 30.0653 73.5359 30.5682C73.3001 31.071 72.979 31.4545 72.5728 31.7188C72.1665 31.983 71.7063 32.1151 71.1921 32.1151C70.8171 32.1151 70.506 32.0526 70.2589 31.9276C70.0117 31.8026 69.8129 31.652 69.6623 31.4759C69.5146 31.2969 69.3995 31.1278 69.3171 30.9688H69.2532V34.4545H67.7106ZM69.2234 28.7273C69.2234 29.1506 69.283 29.5213 69.4023 29.8395C69.5245 30.1577 69.6992 30.4062 69.9265 30.5852C70.1566 30.7614 70.435 30.8494 70.7617 30.8494C71.1026 30.8494 71.3881 30.7585 71.6183 30.5767C71.8484 30.392 72.0217 30.1406 72.1381 29.8224C72.2575 29.5014 72.3171 29.1364 72.3171 28.7273C72.3171 28.321 72.2589 27.9602 72.1424 27.6449C72.0259 27.3295 71.8526 27.0824 71.6225 26.9034C71.3924 26.7244 71.1055 26.6349 70.7617 26.6349C70.4322 26.6349 70.1523 26.7216 69.9222 26.8949C69.6921 27.0682 69.5174 27.3111 69.3981 27.6236C69.2816 27.9361 69.2234 28.304 69.2234 28.7273ZM77.0941 32.1321C76.6793 32.1321 76.3058 32.0582 75.9734 31.9105C75.6438 31.7599 75.3825 31.5384 75.1893 31.2457C74.9989 30.9531 74.9038 30.5923 74.9038 30.1634C74.9038 29.794 74.9719 29.4886 75.1083 29.2472C75.2447 29.0057 75.4308 28.8125 75.6665 28.6676C75.9023 28.5227 76.168 28.4134 76.4634 28.3395C76.7617 28.2628 77.07 28.2074 77.3881 28.1733C77.7717 28.1335 78.0827 28.098 78.3214 28.0668C78.56 28.0327 78.7333 27.9815 78.8413 27.9134C78.9521 27.8423 79.0075 27.733 79.0075 27.5852V27.5597C79.0075 27.2386 78.9123 26.9901 78.7219 26.8139C78.5316 26.6378 78.2575 26.5497 77.8995 26.5497C77.5217 26.5497 77.2219 26.6321 77.0004 26.7969C76.7816 26.9616 76.6339 27.1562 76.5572 27.3807L75.1168 27.1761C75.2305 26.7784 75.418 26.446 75.6793 26.179C75.9407 25.9091 76.2603 25.7074 76.6381 25.5739C77.016 25.4375 77.4336 25.3693 77.891 25.3693C78.2063 25.3693 78.5202 25.4062 78.8327 25.4801C79.1452 25.554 79.4308 25.6761 79.6893 25.8466C79.9478 26.0142 80.1552 26.2429 80.3114 26.5327C80.4705 26.8224 80.5501 27.1847 80.5501 27.6193V32H79.0671V31.1009H79.016C78.9222 31.2827 78.7901 31.4531 78.6197 31.6122C78.4521 31.7685 78.2404 31.8949 77.9847 31.9915C77.7319 32.0852 77.435 32.1321 77.0941 32.1321ZM77.4947 30.9986C77.8043 30.9986 78.0728 30.9375 78.3001 30.8153C78.5273 30.6903 78.7021 30.5256 78.8242 30.321C78.9492 30.1165 79.0117 29.8935 79.0117 29.652V28.8807C78.9634 28.9205 78.881 28.9574 78.7646 28.9915C78.6509 29.0256 78.5231 29.0554 78.381 29.081C78.239 29.1065 78.0984 29.1293 77.9592 29.1491C77.82 29.169 77.6992 29.1861 77.5969 29.2003C77.3668 29.2315 77.1609 29.2827 76.979 29.3537C76.7972 29.4247 76.6538 29.5241 76.5487 29.652C76.4435 29.777 76.391 29.9389 76.391 30.1378C76.391 30.4219 76.4947 30.6364 76.7021 30.7812C76.9094 30.9261 77.1737 30.9986 77.4947 30.9986ZM82.1012 32V25.4545H83.5969V26.5455H83.6651C83.7844 26.1676 83.989 25.8764 84.2788 25.6719C84.5714 25.4645 84.9052 25.3608 85.2802 25.3608C85.3654 25.3608 85.4606 25.3651 85.5657 25.3736C85.6737 25.3793 85.7631 25.3892 85.8342 25.4034V26.8224C85.7688 26.7997 85.6651 26.7798 85.5231 26.7628C85.3839 26.7429 85.2489 26.733 85.1183 26.733C84.837 26.733 84.5842 26.794 84.3597 26.9162C84.1381 27.0355 83.9634 27.2017 83.8356 27.4148C83.7077 27.6278 83.6438 27.8736 83.6438 28.152V32H82.1012ZM90.479 25.4545V26.6477H86.7163V25.4545H90.479ZM87.6452 23.8864H89.1879V30.0312C89.1879 30.2386 89.2191 30.3977 89.2816 30.5085C89.3469 30.6165 89.4322 30.6903 89.5373 30.7301C89.6424 30.7699 89.7589 30.7898 89.8867 30.7898C89.9833 30.7898 90.0714 30.7827 90.1509 30.7685C90.2333 30.7543 90.2958 30.7415 90.3384 30.7301L90.5984 31.9361C90.516 31.9645 90.3981 31.9957 90.2447 32.0298C90.0941 32.0639 89.9094 32.0838 89.6907 32.0895C89.3043 32.1009 88.9563 32.0426 88.6467 31.9148C88.337 31.7841 88.0913 31.5824 87.9094 31.3097C87.7305 31.0369 87.6424 30.696 87.6452 30.2869V23.8864ZM91.7692 32V25.4545H93.3118V32H91.7692ZM92.5447 24.5256C92.3004 24.5256 92.0902 24.4446 91.9141 24.2827C91.7379 24.1179 91.6499 23.9205 91.6499 23.6903C91.6499 23.4574 91.7379 23.2599 91.9141 23.098C92.0902 22.9332 92.3004 22.8509 92.5447 22.8509C92.7919 22.8509 93.0021 22.9332 93.1754 23.098C93.3516 23.2599 93.4396 23.4574 93.4396 23.6903C93.4396 23.9205 93.3516 24.1179 93.1754 24.2827C93.0021 24.4446 92.7919 24.5256 92.5447 24.5256ZM97.7532 32.1278C97.0998 32.1278 96.5387 31.9844 96.07 31.6974C95.604 31.4105 95.2447 31.0142 94.9918 30.5085C94.7418 30 94.6168 29.4148 94.6168 28.7528C94.6168 28.0881 94.7447 27.5014 95.0004 26.9929C95.256 26.4815 95.6168 26.0838 96.0827 25.7997C96.5515 25.5128 97.1055 25.3693 97.7447 25.3693C98.2759 25.3693 98.7461 25.4673 99.1552 25.6634C99.5671 25.8565 99.8952 26.1307 100.14 26.4858C100.384 26.8381 100.523 27.25 100.557 27.7216H99.0827C99.0231 27.4062 98.881 27.1435 98.6566 26.9332C98.435 26.7202 98.1381 26.6136 97.766 26.6136C97.4506 26.6136 97.1737 26.6989 96.935 26.8693C96.6964 27.0369 96.5103 27.2784 96.3768 27.5938C96.2461 27.9091 96.1808 28.2869 96.1808 28.7273C96.1808 29.1733 96.2461 29.5568 96.3768 29.8778C96.5075 30.196 96.6907 30.4418 96.9265 30.6151C97.1651 30.7855 97.445 30.8707 97.766 30.8707C97.9933 30.8707 98.1964 30.8281 98.3754 30.7429C98.5572 30.6548 98.7092 30.5284 98.8313 30.3636C98.9535 30.1989 99.0373 29.9986 99.0827 29.7628H100.557C100.52 30.2259 100.384 30.6364 100.148 30.9943C99.9123 31.3494 99.5913 31.6278 99.185 31.8295C98.7788 32.0284 98.3015 32.1278 97.7532 32.1278ZM101.824 32V25.4545H103.366V32H101.824ZM102.599 24.5256C102.355 24.5256 102.145 24.4446 101.969 24.2827C101.793 24.1179 101.705 23.9205 101.705 23.6903C101.705 23.4574 101.793 23.2599 101.969 23.098C102.145 22.9332 102.355 22.8509 102.599 22.8509C102.847 22.8509 103.057 22.9332 103.23 23.098C103.406 23.2599 103.494 23.4574 103.494 23.6903C103.494 23.9205 103.406 24.1179 103.23 24.2827C103.057 24.4446 102.847 24.5256 102.599 24.5256ZM104.953 34.4545V25.4545H106.47V26.5369H106.559C106.639 26.3778 106.751 26.2088 106.896 26.0298C107.041 25.848 107.237 25.6932 107.484 25.5653C107.731 25.4347 108.047 25.3693 108.43 25.3693C108.936 25.3693 109.392 25.4986 109.798 25.7571C110.207 26.0128 110.531 26.392 110.77 26.8949C111.011 27.3949 111.132 28.0085 111.132 28.7358C111.132 29.4545 111.014 30.0653 110.778 30.5682C110.542 31.071 110.221 31.4545 109.815 31.7188C109.409 31.983 108.949 32.1151 108.434 32.1151C108.059 32.1151 107.748 32.0526 107.501 31.9276C107.254 31.8026 107.055 31.652 106.904 31.4759C106.757 31.2969 106.642 31.1278 106.559 30.9688H106.495V34.4545H104.953ZM106.466 28.7273C106.466 29.1506 106.525 29.5213 106.645 29.8395C106.767 30.1577 106.941 30.4062 107.169 30.5852C107.399 30.7614 107.677 30.8494 108.004 30.8494C108.345 30.8494 108.63 30.7585 108.86 30.5767C109.091 30.392 109.264 30.1406 109.38 29.8224C109.5 29.5014 109.559 29.1364 109.559 28.7273C109.559 28.321 109.501 27.9602 109.385 27.6449C109.268 27.3295 109.095 27.0824 108.865 26.9034C108.635 26.7244 108.348 26.6349 108.004 26.6349C107.674 26.6349 107.395 26.7216 107.164 26.8949C106.934 27.0682 106.76 27.3111 106.64 27.6236C106.524 27.9361 106.466 28.304 106.466 28.7273ZM114.336 32.1321C113.922 32.1321 113.548 32.0582 113.216 31.9105C112.886 31.7599 112.625 31.5384 112.431 31.2457C112.241 30.9531 112.146 30.5923 112.146 30.1634C112.146 29.794 112.214 29.4886 112.35 29.2472C112.487 29.0057 112.673 28.8125 112.909 28.6676C113.145 28.5227 113.41 28.4134 113.706 28.3395C114.004 28.2628 114.312 28.2074 114.63 28.1733C115.014 28.1335 115.325 28.098 115.564 28.0668C115.802 28.0327 115.975 27.9815 116.083 27.9134C116.194 27.8423 116.25 27.733 116.25 27.5852V27.5597C116.25 27.2386 116.154 26.9901 115.964 26.8139C115.774 26.6378 115.5 26.5497 115.142 26.5497C114.764 26.5497 114.464 26.6321 114.243 26.7969C114.024 26.9616 113.876 27.1562 113.799 27.3807L112.359 27.1761C112.473 26.7784 112.66 26.446 112.922 26.179C113.183 25.9091 113.502 25.7074 113.88 25.5739C114.258 25.4375 114.676 25.3693 115.133 25.3693C115.449 25.3693 115.762 25.4062 116.075 25.4801C116.387 25.554 116.673 25.6761 116.931 25.8466C117.19 26.0142 117.397 26.2429 117.554 26.5327C117.713 26.8224 117.792 27.1847 117.792 27.6193V32H116.309V31.1009H116.258C116.164 31.2827 116.032 31.4531 115.862 31.6122C115.694 31.7685 115.483 31.8949 115.227 31.9915C114.974 32.0852 114.677 32.1321 114.336 32.1321ZM114.737 30.9986C115.047 30.9986 115.315 30.9375 115.542 30.8153C115.77 30.6903 115.944 30.5256 116.066 30.321C116.191 30.1165 116.254 29.8935 116.254 29.652V28.8807C116.206 28.9205 116.123 28.9574 116.007 28.9915C115.893 29.0256 115.765 29.0554 115.623 29.081C115.481 29.1065 115.341 29.1293 115.201 29.1491C115.062 29.169 114.941 29.1861 114.839 29.2003C114.609 29.2315 114.403 29.2827 114.221 29.3537C114.039 29.4247 113.896 29.5241 113.791 29.652C113.686 29.777 113.633 29.9389 113.633 30.1378C113.633 30.4219 113.737 30.6364 113.944 30.7812C114.152 30.9261 114.416 30.9986 114.737 30.9986ZM122.612 25.4545V26.6477H118.849V25.4545H122.612ZM119.778 23.8864H121.321V30.0312C121.321 30.2386 121.352 30.3977 121.414 30.5085C121.48 30.6165 121.565 30.6903 121.67 30.7301C121.775 30.7699 121.892 30.7898 122.02 30.7898C122.116 30.7898 122.204 30.7827 122.284 30.7685C122.366 30.7543 122.429 30.7415 122.471 30.7301L122.731 31.9361C122.649 31.9645 122.531 31.9957 122.377 32.0298C122.227 32.0639 122.042 32.0838 121.824 32.0895C121.437 32.1009 121.089 32.0426 120.779 31.9148C120.47 31.7841 120.224 31.5824 120.042 31.3097C119.863 31.0369 119.775 30.696 119.778 30.2869V23.8864ZM126.729 32.1278C126.073 32.1278 125.506 31.9915 125.029 31.7188C124.555 31.4432 124.19 31.054 123.934 30.5511C123.678 30.0455 123.55 29.4503 123.55 28.7656C123.55 28.0923 123.678 27.5014 123.934 26.9929C124.192 26.4815 124.553 26.0838 125.016 25.7997C125.479 25.5128 126.023 25.3693 126.648 25.3693C127.052 25.3693 127.433 25.4347 127.79 25.5653C128.151 25.6932 128.469 25.892 128.745 26.1619C129.023 26.4318 129.242 26.7756 129.401 27.1932C129.56 27.608 129.64 28.1023 129.64 28.6761V29.1491H124.275V28.1094H128.161C128.158 27.8139 128.094 27.5511 127.969 27.321C127.844 27.0881 127.67 26.9048 127.445 26.7713C127.224 26.6378 126.965 26.571 126.67 26.571C126.354 26.571 126.077 26.6477 125.839 26.8011C125.6 26.9517 125.414 27.1506 125.281 27.3977C125.15 27.642 125.083 27.9105 125.08 28.2031V29.1108C125.08 29.4915 125.15 29.8182 125.289 30.0909C125.428 30.3608 125.623 30.5682 125.873 30.7131C126.123 30.8551 126.415 30.9261 126.751 30.9261C126.975 30.9261 127.178 30.8949 127.36 30.8324C127.542 30.767 127.7 30.6719 127.833 30.5469C127.967 30.4219 128.067 30.267 128.136 30.0824L129.576 30.2443C129.485 30.625 129.312 30.9574 129.056 31.2415C128.803 31.5227 128.479 31.7415 128.085 31.8977C127.69 32.0511 127.238 32.1278 126.729 32.1278Z" fill="#1D5BF3"/>
<g clip-path="url(#clip1_5194_1123)">
<path d="M0 -26.9188C0 -28.6205 1.37952 -30 3.08124 -30H380.919C382.62 -30 384 -28.6205 384 -26.9188V124.062C384 125.764 382.62 127.143 380.919 127.143H3.08123C1.37951 127.143 0 125.764 0 124.062V-26.9188Z" fill="#DAE9FF"/>
<g clip-path="url(#clip2_5194_1123)">
<path d="M208.211 27.2109C211.902 22.9634 217.345 20.2785 223.414 20.2783C234.534 20.2783 243.549 29.293 243.549 40.4131C243.549 51.5331 234.534 60.5479 223.414 60.5479C217.344 60.5477 211.902 57.8614 208.211 53.6133V94.6543H313.405C315.221 94.6543 316.692 93.1817 316.692 91.3662V53.6123C320.384 57.8609 325.826 60.5478 331.896 60.5479C343.017 60.5478 352.031 51.5331 352.031 40.4131C352.031 29.293 343.017 20.2783 331.896 20.2783C325.826 20.2783 320.384 22.9645 316.692 27.2129V-10.541C316.692 -12.3562 315.221 -13.8281 313.405 -13.8281H208.211V27.2109ZM103.016 -13.8281C101.201 -13.8278 99.7289 -12.356 99.7285 -10.541V91.3662C99.7285 93.1815 101.2 94.654 103.016 94.6543H204.923C206.738 94.6543 208.21 93.1818 208.21 91.3662V53.6123L208.211 53.6133V27.2109L208.21 27.2129V-10.541C208.21 -12.3563 206.738 -13.8281 204.923 -13.8281H103.016Z" fill="#BCD9FF"/>
</g>
<g clip-path="url(#clip3_5194_1123)">
<path d="M103.428 -13.8281C101.619 -13.8277 100.151 -12.3654 100.142 -10.5586V27.2119C103.833 22.9641 109.276 20.2783 115.346 20.2783C126.465 20.2787 135.48 29.2932 135.48 40.4131C135.48 51.5329 126.465 60.5475 115.346 60.5479C109.276 60.5479 103.833 57.8614 100.142 53.6133V91.3828C100.15 93.1905 101.618 94.6538 103.428 94.6543H208.623V53.6133C212.314 57.8612 217.757 60.5476 223.826 60.5479C234.946 60.5479 243.961 51.5331 243.961 40.4131C243.961 29.293 234.946 20.2783 223.826 20.2783C217.757 20.2786 212.314 22.9641 208.623 27.2119V-13.8281H103.428ZM-5.05273 -13.8281C-6.86806 -13.8281 -8.34046 -12.3563 -8.34082 -10.541V91.3662C-8.34082 93.1818 -6.86827 94.6543 -5.05273 94.6543H96.8545C98.6697 94.6539 100.141 93.1815 100.141 91.3662V-10.541C100.14 -12.356 98.6695 -13.8277 96.8545 -13.8281H-5.05273Z" fill="#8EC2FF"/>
</g>
<path d="M205.173 40.11C206.801 40.6265 208.239 41.7417 209.047 43.0916C209.415 43.4555 209.736 43.5259 210.164 43.209L214.988 28.3359L231.444 33.548C231.658 33.7827 231.575 34.0058 231.266 34.3227C229.899 35.1327 228.842 36.3418 228.319 37.9618C227.178 41.4834 229.151 45.2163 232.715 46.3433C236.28 47.4702 240.094 45.5098 241.246 41.9882C241.722 40.5091 241.615 39.1122 241.116 37.7622C240.937 37.14 240.973 36.7174 241.353 36.6705L257.418 41.7534L243.837 83.6492L201.43 70.2317L206.932 53.2574C206.789 52.6822 206.302 52.6118 205.601 52.7996C204.235 53.2926 202.595 53.3278 201.098 52.8583C197.533 51.7314 195.549 47.9515 196.69 44.4298C197.806 40.9199 201.609 38.9713 205.173 40.11Z" fill="#183CB5"/>
<path d="M242.695 93.9104C243.431 91.8444 243.265 89.6844 242.374 87.8414L234.152 70.9962C234.152 70.9845 234.152 70.9728 234.152 70.9728L226.595 55.5245C226.06 54.4093 224.67 53.9515 223.482 54.515C222.306 55.0667 221.783 56.4284 222.317 57.5436L227.617 68.5898L226.607 69.0593L220.072 55.4658C219.537 54.3506 218.147 53.8928 216.959 54.4563C215.782 55.008 215.26 56.3697 215.794 57.4849L222.448 71.0197L221.379 71.5245L215.937 60.5017C215.402 59.3866 214.012 58.9405 212.824 59.4922C211.648 60.0439 211.125 61.4056 211.659 62.5091L217.636 74.7292L216.626 75.1987L213.347 68.4607C212.812 67.3455 211.422 66.8877 210.234 67.4511C209.057 68.0028 208.535 69.3645 209.069 70.4797L223.161 99.3807C223.173 99.3689 223.185 99.3689 223.197 99.3572C225.11 102.21 227.819 103.161 231.514 101.752L238.548 98.4416C240.437 97.5494 241.958 95.9764 242.695 93.9104Z" fill="#DAE9FF"/>
<path d="M329.243 139.949C338.844 139.949 345.831 130.957 343.359 121.801C339.937 109.135 335.517 93.98 333.176 90.8692C332.523 89.9888 331.858 89.1319 331.109 88.3336C329.398 86.5141 327.307 85.0585 325.085 83.9081C320.344 81.4547 314.902 80.4686 309.603 80.0695C303.947 79.6352 299.076 79.8817 293.432 80.3512C288.299 80.7856 283.142 81.3021 278.033 81.9947C272.698 82.7225 263.787 83.955 259.497 87.3476C252.748 91.3505 248.079 117.317 246.023 131.215C245.346 135.829 248.958 139.949 253.675 139.949H329.243Z" fill="#59A0FF"/>
<path d="M271.94 48.2933C273.389 46.5207 275.433 42.776 277.001 38.9727L291.497 41.1209L297.842 60.0908L305.304 60.2082L305.482 89.8017C305.672 94.0746 300.753 97.7488 294.491 98.0188C288.241 98.2888 283.013 95.0489 282.823 90.776L282.586 65.7958L278.356 65.9132C276.835 65.8663 275.338 65.2206 274.268 63.988C273.199 62.7672 272.771 61.2059 272.95 59.7151L273.769 51.5214L272.569 50.8993C271.464 50.5002 270.989 49.3498 271.94 48.2933Z" fill="#DAE9FF"/>
<path d="M305.681 44.1723L305.289 60.1136H296.425L290.758 41.625L305.681 44.1723Z" fill="black"/>
<path d="M281.526 44.8072C281.538 45.3237 281.134 45.758 280.611 45.7698C280.089 45.7815 279.649 45.3824 279.637 44.8659C279.625 44.3494 280.029 43.915 280.552 43.9033C281.075 43.8798 281.502 44.2907 281.526 44.8072Z" fill="black"/>
<path d="M279.386 57.2C281.501 57.2 282.558 56.0496 283.081 54.9931L282.011 54.4766C281.382 55.7444 280.241 56.2256 278.518 55.9556L278.328 57.1178C278.708 57.1647 279.065 57.2 279.386 57.2Z" fill="black"/>
<path d="M276.844 37.2705C276.856 37.2 277.533 33.3262 277.545 33.2558C278.923 25.2851 286.575 22.8082 294.643 24.17C302.71 25.5317 308.129 30.2272 306.75 38.1861C306.738 38.2565 306.049 42.1303 306.037 42.2007L276.844 37.2705Z" fill="#2684F8"/>
<path d="M301.109 49.0892C301.025 46.1192 298.518 43.7832 295.512 43.8654C292.506 43.9476 290.142 46.4244 290.225 49.3944C290.308 52.3643 292.815 54.7003 295.821 54.6181C298.827 54.536 301.192 52.0591 301.109 49.0892Z" fill="#1D5BF3"/>
<path d="M302.261 37.5054C302.475 36.4372 303.532 35.7446 304.626 35.9559L307.109 36.4489C307.073 37.0241 307.014 37.5993 306.919 38.1863C306.907 38.2215 306.717 39.3367 306.538 40.3697L303.841 39.8297C302.748 39.6184 302.047 38.5737 302.261 37.5054Z" fill="black"/>
<path d="M265.617 37.4334L305.683 44.2419L306.11 42.0937L266.045 35.2734L265.617 37.4334Z" fill="black"/>
<path d="M287.913 65.6874L282.578 65.7656L282.596 66.9394L287.93 66.8612L287.913 65.6874Z" fill="black"/>
<path d="M238.065 139.915L221.062 96.7393C220.61 95.6946 220.622 94.4268 221.193 93.3351C221.763 92.2434 222.773 91.5038 223.902 91.2691L237.993 88.2287C239.039 88.0057 240.18 88.1231 241.202 88.6396C242.235 89.1678 242.972 90.0482 243.4 91.0225L266.248 139.915H238.065Z" fill="#59A0FF"/>
<path d="M176.493 50.8754C175.044 50.9458 173.618 51.4623 172.43 52.4719C169.59 54.8901 169.305 59.0926 171.74 61.8981C174.188 64.7037 178.477 64.9972 181.317 62.5907C182.612 61.4873 183.313 60.0551 183.539 58.5056C183.8 57.8835 184.074 57.8248 184.81 58.4352L186.296 60.1373L195.112 70.2444L161.379 98.9693L132.305 65.6428L145.232 54.6318C145.161 54.491 144.828 54.2914 144.412 54.174C142.986 53.8923 141.668 53.1879 140.634 52.0141C138.186 49.2085 138.507 44.9943 141.347 42.5761C144.187 40.1579 148.464 40.4748 150.9 43.2804C152.017 44.5599 152.528 46.1095 152.516 47.6825C152.575 47.929 152.658 48.105 152.789 48.199L166.037 36.918L175.495 47.7646L177.099 49.5959C177.705 50.5115 177.42 50.758 176.493 50.8754Z" fill="#1D5BF3"/>
<path d="M54.1579 139.792C45.1753 139.792 38.6165 131.398 40.8978 122.817C44.0821 110.82 48.2527 96.3581 50.534 93.3177C51.1756 92.4608 51.8172 91.6273 52.5539 90.8526C54.2173 89.08 56.2491 87.6714 58.4116 86.5562C63.0218 84.1732 68.321 83.2106 73.4659 82.8232C78.9672 82.4006 100.01 84.0206 104.976 84.6897C110.157 85.394 115.456 86.6031 119.627 89.9017C124.795 93.9868 127.302 100.338 129.132 106.442C130.19 109.963 130.926 119.859 131.437 128.205C131.817 134.497 126.756 139.803 120.387 139.803H54.1579V139.792Z" fill="#1D5BF3"/>
<path d="M63.767 52.626C67.7466 51.4055 71.1799 50.7952 74.518 42.8852C76.3356 38.625 79.6382 35.5972 83.4159 33.7194C86.2432 31.8886 89.617 30.8324 93.2522 30.8559C101.829 30.9028 108.957 36.982 110.596 44.9155H106.249L109.456 58.8578C116.774 60.9116 121.514 63.8338 123.248 73.1991L79.4243 73.2108L51.6854 73.2226C51.234 65.6646 52.4932 55.7712 63.767 52.626Z" fill="black"/>
<path d="M84.1131 51.6083C84.2557 49.1784 86.3706 47.3237 88.8302 47.4646C91.2897 47.6054 93.167 49.6949 93.0244 52.1249C92.8819 54.5548 90.7669 56.4095 88.3074 56.2687C85.8478 56.1278 83.9705 54.0383 84.1131 51.6083Z" fill="#BCD9FF"/>
<path d="M109.141 44.7188H93.2546L93.2783 48.8743L87.5038 54.8963L80.1133 92.6365C80.1133 96.7921 85.0442 100.161 91.1396 100.161C97.235 100.161 102.166 96.7921 102.166 92.6365L102.309 68.8537L106.42 69.1002C107.893 69.1002 109.366 68.5133 110.448 67.3629C111.529 66.2008 111.992 64.7099 111.873 63.2543L111.232 55.178L112.408 54.6028C113.477 54.2624 114.083 53.0416 113.085 52.079C111.909 51.2455 110.329 47.7474 109.141 44.7188Z" fill="#BCD9FF"/>
<path d="M103.385 49.0728C103.349 49.5776 103.742 50.0002 104.252 50.0354C104.763 50.0706 105.191 49.6832 105.227 49.1785C105.262 48.6737 104.87 48.2511 104.359 48.2159C103.848 48.1924 103.409 48.568 103.385 49.0728Z" fill="black"/>
<path d="M104.512 60.7547C104.773 60.7547 105.058 60.743 105.355 60.696L105.213 59.5339C103.538 59.7452 102.456 59.2404 101.886 57.9961L100.805 58.4891C101.292 59.5574 102.326 60.7547 104.512 60.7547Z" fill="black"/>
<path d="M96.0345 68.8263L96.0156 70L100.958 70.0776L100.977 68.9039L96.0345 68.8263Z" fill="black"/>
<path d="M80.2734 59.4848C80.2734 56.8201 82.4597 54.6602 85.1569 54.6602C87.854 54.6602 90.0403 56.8318 90.0403 59.4848C90.0403 62.1495 87.854 64.3095 85.1569 64.3095C82.4597 64.3095 80.2734 62.1378 80.2734 59.4848ZM81.4616 59.4848C81.4616 61.5039 83.1251 63.1356 85.1569 63.1356C87.2005 63.1356 88.8521 61.4921 88.8521 59.4848C88.8521 57.4657 87.1887 55.834 85.1569 55.834C83.1251 55.834 81.4616 57.4657 81.4616 59.4848Z" fill="#DAE9FF"/>
<path d="M136.086 92.1247L145.829 73.4952C145.829 73.4835 145.829 73.4835 145.829 73.4718L152.186 61.2164C152.637 60.336 153.766 59.9956 154.705 60.4652C155.643 60.9347 156.036 62.0264 155.584 62.9186L151.128 71.6875L151.924 72.0866L157.426 61.2986C157.877 60.4182 159.006 60.0778 159.945 60.5473C160.883 61.0169 161.275 62.1086 160.824 63.0007L155.228 73.7417L156.071 74.1643L160.646 65.4189C161.097 64.5385 162.226 64.1981 163.165 64.6677C164.103 65.1372 164.495 66.2289 164.044 67.1211L159.018 76.8173L159.814 77.2164L162.571 71.8753C163.022 70.9949 164.151 70.6544 165.089 71.124C166.028 71.5935 166.42 72.6852 165.969 73.5774L152.554 99.9897L136.086 92.1247Z" fill="#BCD9FF"/>
<path d="M131.427 139.95C131.427 139.892 152.862 98.794 152.862 98.794C153.314 97.7493 153.302 96.4815 152.732 95.3898C152.161 94.2981 151.151 93.5585 150.022 93.3237L138.331 90.2834C137.285 90.0604 136.145 90.1777 135.123 90.6943C134.089 91.2225 133.352 92.1029 132.925 93.0772L105.977 139.95H131.427Z" fill="#1D5BF3"/>
</g>
</g>
<defs>
<clipPath id="clip0_5194_1123">
<path d="M0 8C0 3.58172 3.58172 0 8 0H376C380.418 0 384 3.58172 384 8V112C384 116.418 380.418 120 376 120H7.99999C3.58171 120 0 116.418 0 112V8Z" fill="white"/>
</clipPath>
<clipPath id="clip1_5194_1123">
<path d="M0 -26.9188C0 -28.6205 1.37952 -30 3.08124 -30H380.919C382.62 -30 384 -28.6205 384 -26.9188V124.062C384 125.764 382.62 127.143 380.919 127.143H3.08123C1.37951 127.143 0 125.764 0 124.062V-26.9188Z" fill="white"/>
</clipPath>
<clipPath id="clip2_5194_1123">
<rect width="143.821" height="108.482" fill="white" transform="matrix(-1 0 0 1 352.031 -13.8242)"/>
</clipPath>
<clipPath id="clip3_5194_1123">
<rect width="143.821" height="108.482" fill="white" transform="matrix(-1 0 0 1 243.961 -13.8242)"/>
</clipPath>
</defs>
</svg>
