<svg width="322" height="190" viewBox="0 0 322 190" fill="none" xmlns="http://www.w3.org/2000/svg">
<path d="M66.2207 24C66.2207 19.5817 69.8024 16 74.2207 16H269.221C273.639 16 277.221 19.5817 277.221 24V164H66.2207V24Z" fill="#212223"/>
<path d="M270.37 29.2305V143.772C270.37 145.153 269.251 146.272 267.87 146.272H75.5703C74.1897 146.272 73.0705 145.153 73.0703 143.772V29.2305H270.37Z" fill="white" stroke="#E5E7EB"/>
<path d="M266.87 22.2656H76.5703C74.3612 22.2656 72.5703 24.0565 72.5703 26.2656V29.7298H270.87V26.2656C270.87 24.0565 269.079 22.2656 266.87 22.2656Z" fill="#367DFE"/>
<path d="M284.692 162.984H58.748C57.0912 162.984 55.748 164.328 55.748 165.984V170.726C55.748 172.383 57.0912 173.726 58.748 173.726H284.692C286.349 173.726 287.692 172.383 287.692 170.726V165.984C287.692 164.328 286.349 162.984 284.692 162.984Z" fill="#0A0A0A"/>
<path d="M182.094 151.875H161.346C160.156 151.875 159.191 152.838 159.191 154.027V155.732C159.191 156.921 160.156 157.884 161.346 157.884H182.094C183.284 157.884 184.249 156.921 184.249 155.732V154.027C184.249 152.838 183.284 151.875 182.094 151.875Z" fill="#030712"/>
<path d="M117.748 66.5742H100.168C98.6955 66.5742 97.502 67.766 97.502 69.2362V70.8603C97.502 72.3304 98.6955 73.5223 100.168 73.5223H117.748C119.221 73.5223 120.414 72.3304 120.414 70.8603V69.2362C120.414 67.766 119.221 66.5742 117.748 66.5742Z" fill="#DAE9FF"/>
<path d="M145.588 66.5742H130.164C128.672 66.5742 127.463 67.7817 127.463 69.2712V70.8253C127.463 72.3148 128.672 73.5223 130.164 73.5223H145.588C147.08 73.5223 148.289 72.3148 148.289 70.8253V69.2712C148.289 67.7817 147.08 66.5742 145.588 66.5742Z" fill="#D3DFFF"/>
<path d="M177.604 66.5742H156.942C155.369 66.5742 154.094 67.8474 154.094 69.418V70.6785C154.094 72.2491 155.369 73.5223 156.942 73.5223H177.604C179.177 73.5223 180.452 72.2491 180.452 70.6785V69.418C180.452 67.8474 179.177 66.5742 177.604 66.5742Z" fill="#DAE9FF"/>
<path d="M222.012 66.5352H191.516C189.943 66.5352 188.668 67.8084 188.668 69.3789V70.6394C188.668 72.21 189.943 73.4832 191.516 73.4832H222.012C223.585 73.4832 224.86 72.21 224.86 70.6394V69.3789C224.86 67.8084 223.585 66.5352 222.012 66.5352Z" fill="#DAE9FF"/>
<path d="M193.667 46.0078H149.775C148.671 46.0078 147.775 46.9032 147.775 48.0078V49.015C147.775 50.1195 148.671 51.015 149.775 51.015H193.667C194.772 51.015 195.667 50.1196 195.667 49.015V48.0078C195.667 46.9032 194.772 46.0078 193.667 46.0078Z" fill="#367DFE"/>
<path d="M171.166 110.137H166.68C165.575 110.137 164.68 111.032 164.68 112.137V124.362C164.68 125.466 165.575 126.362 166.68 126.362H171.166C172.271 126.362 173.166 125.466 173.166 124.362V112.137C173.166 111.032 172.271 110.137 171.166 110.137Z" fill="#59A0FF"/>
<path d="M185.652 100.484H181.166C180.061 100.484 179.166 101.38 179.166 102.484V124.361C179.166 125.466 180.061 126.361 181.166 126.361H185.652C186.757 126.361 187.652 125.466 187.652 124.361V102.484C187.652 101.38 186.757 100.484 185.652 100.484Z" fill="#DAE9FF"/>
<path d="M200.139 94.8047H195.652C194.548 94.8047 193.652 95.7001 193.652 96.8047V124.365C193.652 125.469 194.548 126.365 195.652 126.365H200.139C201.243 126.365 202.139 125.469 202.139 124.365V96.8047C202.139 95.7001 201.243 94.8047 200.139 94.8047Z" fill="#59A0FF"/>
<path d="M214.625 108.535H210.139C209.034 108.535 208.139 109.431 208.139 110.535V124.362C208.139 125.467 209.034 126.362 210.139 126.362H214.625C215.73 126.362 216.625 125.467 216.625 124.362V110.535C216.625 109.431 215.73 108.535 214.625 108.535Z" fill="#DAE9FF"/>
<path d="M229.111 98.2383H224.625C223.52 98.2383 222.625 99.1337 222.625 100.238V124.364C222.625 125.468 223.52 126.364 224.625 126.364H229.111C230.216 126.364 231.111 125.468 231.111 124.364V100.238C231.111 99.1337 230.216 98.2383 229.111 98.2383Z" fill="#59A0FF"/>
<path d="M243.598 87.5547H239.111C238.007 87.5547 237.111 88.4501 237.111 89.5547V124.363C237.111 125.468 238.007 126.363 239.111 126.363H243.598C244.702 126.363 245.598 125.468 245.598 124.363V89.5547C245.598 88.4501 244.702 87.5547 243.598 87.5547Z" fill="#DAE9FF"/>
<path d="M153.031 90.5273H101.221C100.116 90.5273 99.2207 91.4228 99.2207 92.5273V124.912C99.2207 126.016 100.116 126.912 101.221 126.912H153.031C154.135 126.912 155.031 126.016 155.031 124.912V92.5273C155.031 91.4228 154.135 90.5273 153.031 90.5273Z" fill="#EEF6FF"/>
<path d="M129.654 104.053C127.551 103.225 125.39 103.876 123.847 105.382C122.441 106.753 122.244 108.693 121.582 110.424C122.95 110.796 124.177 111.605 125.661 111.375C127.597 111.073 127.647 109.27 128.744 108.042C129.684 106.989 130.809 106.312 132.154 106.131C131.583 105.28 130.879 104.536 129.654 104.053ZM145.46 102.166C143.557 102.573 141.557 103.252 140.199 104.641C139.032 105.831 139.073 107.899 138.224 109.158C139.176 109.794 140.264 110.092 141.311 109.525C142.338 108.97 142.963 107.723 144.069 107.179C144.96 106.742 146.245 106.465 147.208 106.292C147.431 106.252 147.66 106.226 147.888 106.195V101.773C147.073 101.864 146.262 101.995 145.46 102.166Z" fill="#367DFE"/>
<path d="M147.208 106.292C146.239 106.466 144.96 106.743 144.069 107.18C142.963 107.723 142.339 108.971 141.311 109.526C140.261 110.092 139.183 109.798 138.224 109.158C137.842 108.9 137.485 108.605 137.159 108.28C135.849 106.991 135.439 106.262 133.368 106.095C132.966 106.064 132.561 106.076 132.161 106.131C130.816 106.311 129.691 106.989 128.751 108.041C127.654 109.263 127.604 111.072 125.668 111.374C124.172 111.606 122.948 110.797 121.589 110.423C121.03 110.256 120.442 110.206 119.862 110.277C118.421 110.475 117.509 111.34 116.504 111.994C115.805 112.45 115.06 112.809 114.057 112.763C111.822 112.665 108.941 111.379 106.367 111.296V119.234C106.367 120.339 107.263 121.234 108.367 121.234H145.89C146.994 121.234 147.89 120.339 147.89 119.234V106.196C147.66 106.227 147.431 106.253 147.208 106.292Z" fill="#59A0FF"/>
<path d="M116.497 111.995C116.332 111.853 116.179 111.696 116.041 111.527C115.013 110.253 114.93 108.636 113.792 107.442C111.577 105.116 108.552 106.035 106.363 108.013V111.297C108.937 111.38 111.818 112.666 114.053 112.763C115.054 112.808 115.799 112.454 116.497 111.995Z" fill="#DAE9FF"/>
<path d="M52.5043 93.259L43.4043 95.0426L45.4821 81.6719L51.0821 81.7884C51.0471 82.0214 51.011 82.2544 50.99 82.4874C50.7823 84.285 50.8896 86.0896 51.1183 87.7008C51.3887 89.596 51.8531 91.4584 52.5043 93.259Z" fill="#EEF6FF"/>
<path d="M51.1141 87.6978C47.6141 86.0504 46.3145 82.5916 46.3145 82.5916L50.9811 82.4844C50.7781 84.282 50.889 86.0866 51.1141 87.6978Z" fill="#DAE9FF"/>
<path d="M53.0376 74.066C53.3946 75.3148 55.4188 83.2182 51.7286 84.1094C48.0385 85.0007 44.2305 81.614 44.2305 81.614L45.48 74.0066L50.8361 72.4023L53.0376 74.066Z" fill="#EEF6FF"/>
<path d="M48.15 78.3639C48.15 78.3639 49.1102 72.0426 53.0372 74.0627C52.8972 73.9905 52.693 73.3637 52.6067 73.2169C52.2153 72.5615 51.7002 71.9882 51.09 71.5288C48.8547 69.8978 45.0863 70.4873 43.2827 72.37C41.507 74.2223 41.4533 77.5134 42.368 79.9075C42.5153 80.2948 42.7026 80.6657 42.9268 81.0143C43.1317 81.3221 43.3726 81.6044 43.6443 81.8554C43.8777 82.0791 45.6277 83.4573 45.6487 82.3971C45.6883 79.812 48.15 78.3639 48.15 78.3639Z" fill="#1D5BF3"/>
<path d="M49.0144 79.8124C49.6827 79.2665 49.6759 78.1542 48.9991 77.328C48.3224 76.5017 47.232 76.2744 46.5636 76.8202C45.8953 77.3661 45.9021 78.4784 46.5789 79.3047C47.2557 80.1309 48.3461 80.3582 49.0144 79.8124Z" fill="#EEF6FF"/>
<path d="M53.7811 79.4558C54.2405 79.4558 54.6129 79.0521 54.6129 78.5541C54.6129 78.0561 54.2405 77.6523 53.7811 77.6523C53.3216 77.6523 52.9492 78.0561 52.9492 78.5541C52.9492 79.0521 53.3216 79.4558 53.7811 79.4558Z" fill="#EEF6FF"/>
<path d="M41.8509 144.84L31.0195 149.475C31.0195 149.475 39.9457 172.177 42.5695 173.603C45.1934 175.028 43.8785 162.43 45.6635 158.628L47.9257 149.713L41.8509 144.84Z" fill="#102048"/>
<path d="M39.1133 143.178L45.6594 158.629C45.6594 158.629 71.1301 145.317 77.4383 133.195L67.4411 120.121L39.1133 143.178Z" fill="#367DFE"/>
<path d="M73.2734 155.654C73.2734 155.654 85.1734 156.129 90.6498 146.741L78.5094 144.957L73.2734 155.654Z" fill="#102048"/>
<path d="M91.8889 157.28L78.4618 162.017L77.3791 158.191L75.4121 151.262L86.6039 145.973L87.3903 147.658L91.8889 157.28Z" fill="#EEF6FF"/>
<path d="M108.859 173.722L94.1604 162.133L91.8912 157.281L78.4629 162.013L81.7821 173.722H108.859Z" fill="#102048"/>
<path d="M87.3903 147.658L77.3791 158.191L75.4121 151.262L86.6039 145.973L87.3903 147.658Z" fill="#DAE9FF"/>
<path d="M89.6336 143.704C90.1954 145.345 89.2214 147.09 87.5756 147.637C83.7078 148.924 80.0508 150.755 76.6046 153.131C74.9132 154.297 72.5091 153.664 71.7781 151.744L65.8239 136.105C65.0612 134.102 62.4847 133.488 60.8381 134.86C55.0454 139.688 43.0742 148.499 35.0674 146.387C26.2757 144.068 28.2054 131.385 28.9905 127.601C29.1347 126.906 29.5482 126.314 30.1317 125.91C44.3944 116.044 66.2951 103.454 76.0034 113.81C76.0498 113.851 76.0935 113.894 76.134 113.941C78.164 116.167 80.4507 120.568 82.6114 125.442C85.5514 132.087 88.234 139.616 89.6336 143.704Z" fill="#59A0FF"/>
<path d="M82.6072 125.44C72.7431 127.757 62.5954 116.819 62.5954 116.819L72.7897 113.477L75.9992 113.813C76.0457 113.854 76.0893 113.897 76.1299 113.944C78.1599 116.169 80.4524 120.567 82.6072 125.44Z" fill="#367DFE"/>
<path d="M43.8997 88.2969L39.9039 101.198L34.5267 118.557C34.5267 118.557 30.6044 119.963 27.1441 119.524C24.0874 119.137 21.3912 117.303 22.1204 111.763C23.7281 99.5473 43.8997 88.2969 43.8997 88.2969Z" fill="#367DFE"/>
<path d="M39.9044 101.2L34.5272 118.559C34.5272 118.559 30.6049 119.965 27.1445 119.526C30.046 101.712 39.6477 94.1289 39.6477 94.1289L39.9044 101.2Z" fill="#1D5BF3"/>
<path d="M83.0008 101.067L80.0247 112.385L69.9785 102.923L73.9638 96.25L79.3527 99.1194L83.0008 101.067Z" fill="#1D5BF3"/>
<path d="M73.9863 96.2615L77.799 90.1779L85.5013 86.8984L82.9778 101.089L73.9863 96.2615Z" fill="#EEF6FF"/>
<path d="M111.411 84.6181C109.386 84.1346 107.561 84.2138 105.914 84.8173C104.789 85.2413 103.759 85.8817 102.881 86.7023L99.1582 78.0813C100.391 77.8776 101.584 77.4817 102.693 76.9081C104.272 76.0769 105.598 74.8362 106.53 73.3164L111.411 84.6181Z" fill="#1F3C88"/>
<path d="M102.885 86.6968L99.1647 78.0781L44.3535 104.06L46.3345 108.649L102.885 86.6968L99.1647 78.0781L102.885 86.6968Z" fill="#1F3C88"/>
<path d="M111.411 84.6181C109.387 84.1346 107.561 84.2138 105.915 84.8173L102.693 76.9081C104.272 76.0769 105.598 74.8362 106.531 73.3164L111.411 84.6181Z" fill="#102048"/>
<path d="M154.099 89.1322C165.534 77.7136 165.534 59.2004 154.099 47.7818C142.664 36.3632 124.124 36.3632 112.689 47.7818C101.254 59.2004 101.254 77.7136 112.689 89.1322C124.124 100.551 142.664 100.551 154.099 89.1322Z" fill="#1F3C88"/>
<path d="M150.644 85.6823C160.171 76.169 160.171 60.745 150.644 51.2318C141.117 41.7186 125.671 41.7186 116.144 51.2318C106.618 60.745 106.618 76.169 116.144 85.6823C125.671 95.1955 141.117 95.1955 150.644 85.6823Z" fill="white"/>
<path d="M111.156 58.4447H155.627C155.53 58.2315 155.435 58.0171 155.333 57.8086H111.46C111.357 58.0195 111.253 58.2303 111.156 58.4447ZM155.554 78.6365H111.241C111.339 78.8485 111.434 79.064 111.538 79.2726H155.246C155.351 79.0617 155.456 78.8497 155.554 78.6365Z" fill="#EEF6FF"/>
<path d="M115.177 68.7873V68.2887C115.175 67.3262 114.79 66.4039 114.109 65.7232C113.427 65.0426 112.504 64.659 111.54 64.6562H109.302C108.892 67.2273 108.9 69.8477 109.325 72.4163H111.542C112.505 72.4129 113.427 72.0296 114.108 71.3498C114.789 70.67 115.174 69.7489 115.177 68.7873Z" fill="#D3DFFF"/>
<path d="M142.624 64.6602H126.734C124.699 64.6602 123.049 66.3079 123.049 68.3404V68.74C123.049 70.7725 124.699 72.4202 126.734 72.4202H142.624C144.66 72.4202 146.31 70.7725 146.31 68.74V68.3404C146.31 66.3079 144.66 64.6602 142.624 64.6602Z" fill="#DAE9FF"/>
<path d="M157.497 64.6602H156.68C155.661 64.6778 154.69 65.0943 153.976 65.8201C153.262 66.5458 152.861 67.5226 152.861 68.5402C152.861 69.5578 153.262 70.5346 153.976 71.2603C154.69 71.9861 155.661 72.4026 156.68 72.4202H157.463C157.892 69.8522 157.903 67.2318 157.497 64.6602Z" fill="#DAE9FF"/>
<path d="M82.9993 101.069L79.3535 99.1209L81.5702 94.2989C81.5702 94.2989 84.6665 88.7139 86.2112 88.9528C87.7559 89.1916 82.9993 101.069 82.9993 101.069Z" fill="#EEF6FF"/>
<path d="M69.9806 102.922L69.2234 104.192C67.7161 102.124 64.3958 97.717 60.2179 94.2161C56.4613 91.0706 51.3653 86.1776 46.9179 86.8568C35.0039 88.6614 29.2324 126.538 29.2324 126.538L60.0534 115.398L66.9578 120.769C68.4596 121.937 70.3481 122.496 72.2451 122.333C73.7998 122.199 75.2747 121.587 76.4668 120.582C77.659 119.576 78.5097 118.226 78.9021 116.718L80.0268 112.392L69.9806 102.922Z" fill="#367DFE"/>
</svg>
